{"glyphs":{"$":{"x_min":0,"x_max":572,"ha":572,"o":"m 255 33 q 306 38 337 65 q 368 92 376 138 q 383 180 362 209 q 341 239 294 254 z m 307 580 q 261 576 232 551 q 202 525 195 482 q 188 443 207 417 q 225 391 271 375 z m 30 35 l 54 170 l 101 170 q 91 103 118 69 q 146 35 211 33 l 253 270 q 157 301 124 342 q 90 383 102 450 q 115 528 172 576 q 229 623 316 629 l 338 760 l 382 760 l 360 629 q 403 625 442 613 q 481 601 517 581 l 495 453 l 447 453 q 451 510 427 542 q 402 575 351 580 l 312 359 q 415 326 451 284 q 487 242 474 171 q 460 90 400 41 q 341 -8 247 -15 l 224 -147 l 180 -147 l 203 -15 q 161 -14 118 -2 q 75 11 30 35 z"},"?":{"x_min":0,"x_max":482,"ha":482,"o":"m 174 116 q 198 116 212 97 q 226 78 221 51 q 216 24 196 5 q 175 -14 151 -14 q 126 -14 112 5 q 99 23 104 51 q 108 78 129 97 q 149 116 174 116 z m 119 697 q 170 720 214 731 q 258 742 294 742 q 392 742 439 690 q 487 638 471 549 q 456 458 397 400 q 338 343 236 318 l 214 194 l 160 194 l 188 354 q 270 375 317 424 q 365 474 379 550 q 391 617 365 655 q 340 694 285 694 q 234 694 197 662 q 160 630 140 570 l 97 570 z"},"<":{"x_min":0,"x_max":754,"ha":754,"o":"m 659 498 l 203 313 l 659 129 l 659 46 l 95 273 l 95 354 l 659 581 z"},"'":{"x_min":0,"x_max":247,"ha":247,"o":"m 158 729 l 158 458 l 88 458 l 88 729 z"},"=":{"x_min":0,"x_max":754,"ha":754,"o":"m 95 452 l 659 452 l 659 374 l 95 374 z m 95 253 l 659 253 l 659 175 l 95 175 z"},"a":{"x_min":0,"x_max":536,"ha":536,"o":"m 327 81 q 268 -14 174 -14 q 97 -14 58 44 q 30 85 30 144 q 30 168 35 196 q 65 369 173 458 q 265 533 376 533 q 451 533 477 519 l 395 52 l 464 52 l 455 0 l 313 0 z m 116 146 q 116 42 207 42 q 262 42 300 91 q 337 140 354 234 l 395 469 l 395 469 q 395 483 359 483 q 275 483 209 410 q 145 336 121 203 q 116 171 116 146 z"},"L":{"x_min":0,"x_max":598,"ha":598,"o":"m -14 0 l -4 52 l 79 52 l 188 677 l 105 677 l 114 729 l 370 729 l 361 677 l 277 677 l 169 60 l 469 60 l 491 182 l 545 182 l 513 0 z"},"3":{"x_min":0,"x_max":572,"ha":572,"o":"m 146 698 q 201 720 250 731 q 299 742 341 742 q 437 742 483 696 q 529 650 515 568 q 503 502 458 458 q 413 414 342 398 q 420 385 456 333 q 491 280 477 197 q 458 95 387 40 q 316 -14 200 -14 q 149 -14 102 -2 q 55 10 11 35 l 36 177 l 85 177 q 77 106 109 70 q 141 34 210 34 q 278 34 324 77 q 371 121 384 196 q 399 282 366 326 q 334 370 257 370 l 215 370 l 224 420 l 246 420 q 323 420 367 455 q 412 491 424 562 q 436 626 410 660 q 384 694 325 694 q 266 694 227 663 q 189 631 173 570 l 124 570 z"},";":{"x_min":0,"x_max":303,"ha":303,"o":"m -10 -97 q 37 -63 64 -18 q 92 28 103 93 l 106 111 l 193 111 q 175 27 133 -32 q 90 -92 18 -136 z m 251 369 q 247 342 226 323 q 206 304 181 304 q 157 304 143 323 q 129 342 134 369 q 139 396 159 415 q 180 434 204 434 q 229 434 242 415 q 256 396 251 369 z"},"J":{"x_min":0,"x_max":360,"ha":360,"o":"m -151 -175 l -131 -60 l -81 -60 q -88 -108 -73 -132 q -58 -156 -19 -156 q 33 -156 60 -119 q 87 -83 106 24 l 220 677 l 118 677 l 127 729 l 402 729 l 393 677 l 309 677 l 194 20 q 173 -101 120 -154 q 67 -208 -29 -208 q -61 -208 -91 -200 q -122 -191 -151 -175 z"},"V":{"x_min":0,"x_max":650,"ha":650,"o":"m 212 677 l 308 117 l 599 677 l 525 677 l 534 729 l 727 729 l 718 677 l 654 677 l 301 0 l 226 0 l 111 677 l 46 677 l 55 729 l 294 729 l 285 677 z"},"\"":{"x_min":0,"x_max":414,"ha":414,"o":"m 158 729 l 158 458 l 88 458 l 88 729 z m 326 729 l 326 458 l 256 458 l 256 729 z"},"7":{"x_min":0,"x_max":572,"ha":572,"o":"m 562 679 l 187 0 l 122 0 l 480 649 l 177 649 l 161 559 l 110 559 l 139 729 l 571 729 z"},"S":{"x_min":0,"x_max":616,"ha":616,"o":"m 26 35 l 55 201 l 105 201 q 93 118 127 78 q 162 38 245 38 q 324 38 371 73 q 418 107 429 173 q 438 226 419 254 q 399 282 324 309 l 242 338 q 153 370 123 417 q 93 464 107 547 q 124 640 192 691 q 260 742 368 742 q 413 742 466 731 q 519 720 576 699 l 549 544 l 500 544 q 505 621 473 656 q 440 690 360 690 q 291 690 249 658 q 208 627 197 567 q 188 515 210 485 q 232 455 315 426 l 392 399 q 476 369 505 323 q 535 277 522 199 q 503 93 433 40 q 362 -14 242 -14 q 188 -14 134 -2 q 80 10 26 35 z"},"}":{"x_min":0,"x_max":572,"ha":572,"o":"m 41 -112 l 71 -112 q 133 -112 155 -91 q 178 -69 190 0 l 214 140 q 228 217 255 250 q 282 282 343 299 q 288 313 272 347 q 256 380 270 457 l 294 597 q 307 667 292 688 q 277 709 215 709 l 185 709 l 193 760 l 221 760 q 331 760 361 724 q 391 688 372 580 l 350 454 q 337 381 356 353 q 375 324 438 324 l 465 324 l 456 273 l 428 273 q 366 273 337 245 q 309 216 296 143 l 274 17 q 255 -91 212 -127 q 169 -163 60 -163 l 32 -163 z"},"Z":{"x_min":0,"x_max":625,"ha":625,"o":"m -23 0 l -17 35 l 503 669 l 164 669 l 145 560 l 90 560 l 120 729 l 639 729 l 632 694 l 113 60 l 484 60 l 501 162 l 555 162 l 527 0 z"},"x":{"x_min":0,"x_max":507,"ha":507,"o":"m 58 0 l 2 0 l 208 249 l 105 467 l 47 467 l 56 519 l 175 519 l 272 317 l 439 519 l 495 519 l 292 275 l 399 52 l 460 52 l 451 0 l 329 0 l 229 207 z"},")":{"x_min":0,"x_max":351,"ha":351,"o":"m -16 -156 l -7 -108 q 69 -56 115 38 q 162 132 191 302 q 221 472 208 566 q 194 660 136 712 l 145 760 q 242 707 276 591 q 311 476 280 302 q 250 128 175 13 q 101 -103 -16 -156 z"},"&":{"x_min":0,"x_max":801,"ha":801,"o":"m 442 113 l 239 412 q 194 374 167 330 q 140 286 131 236 q 128 215 128 196 q 128 141 158 100 q 199 45 274 45 q 319 45 362 62 q 405 80 442 113 z m 695 0 l 519 0 l 471 71 q 417 28 361 7 q 305 -14 245 -14 q 131 -14 76 50 q 35 98 35 171 q 35 196 41 225 q 52 290 95 346 q 139 403 215 452 q 198 482 193 512 q 190 526 190 541 q 190 557 193 573 q 207 651 265 697 q 323 742 410 742 q 439 742 477 734 q 515 726 562 709 l 541 583 l 491 583 q 491 589 491 595 q 491 638 471 663 q 447 690 399 690 q 354 690 321 662 q 288 635 280 591 q 278 581 278 570 q 278 551 285 531 q 294 503 332 447 l 513 181 q 550 220 575 265 q 600 311 614 362 l 623 414 l 751 414 l 742 362 l 667 362 q 648 298 617 243 q 585 188 541 141 l 601 52 l 704 52 z"},"_":{"x_min":0,"x_max":450,"ha":450,"o":"m 450 -197 l 450 -236 l 0 -236 l 0 -197 z"},"v":{"x_min":0,"x_max":508,"ha":508,"o":"m 236 0 l 177 0 l 87 467 l 34 467 l 42 519 l 164 519 l 243 110 q 293 159 327 221 q 397 350 422 467 l 369 467 l 378 519 l 499 519 q 451 318 390 205 q 337 107 236 0 z"},"O":{"x_min":0,"x_max":738,"ha":738,"o":"m 312 38 q 420 38 489 120 q 559 203 586 364 q 615 525 574 608 q 534 690 426 690 q 318 690 249 608 q 179 525 151 364 q 123 203 164 120 q 204 38 312 38 z m 303 -14 q 236 -14 185 10 q 133 35 98 82 q 59 137 47 206 q 35 275 51 364 q 66 452 102 522 q 138 591 197 646 q 249 694 308 718 q 368 742 435 742 q 578 742 648 638 q 717 534 688 364 q 672 276 636 206 q 600 136 541 82 q 489 34 430 10 q 370 -14 303 -14 z"},"(":{"x_min":0,"x_max":351,"ha":351,"o":"m 207 -156 q 109 -103 75 13 q 41 128 71 302 q 102 476 176 591 q 251 707 367 760 l 359 712 q 282 660 236 566 q 190 472 160 302 q 131 132 144 38 q 157 -56 215 -108 z"},"C":{"x_min":0,"x_max":688,"ha":688,"o":"m 604 193 q 558 91 480 38 q 403 -14 298 -14 q 234 -14 183 10 q 133 35 98 82 q 59 137 47 206 q 35 276 50 364 q 80 534 187 638 q 293 742 438 742 q 492 742 550 727 q 607 711 672 679 l 642 511 l 593 511 q 592 603 551 646 q 510 690 421 690 q 316 690 248 607 q 179 524 151 364 q 123 204 163 121 q 202 38 307 38 q 381 38 435 77 q 489 116 524 193 z"},"W":{"x_min":0,"x_max":925,"ha":925,"o":"m 622 0 l 550 0 l 503 593 l 250 0 l 178 0 l 124 677 l 59 677 l 68 729 l 308 729 l 298 677 l 217 677 l 259 138 l 512 729 l 583 729 l 631 132 l 864 677 l 788 677 l 797 729 l 986 729 l 977 677 l 913 677 z"},"A":{"x_min":0,"x_max":650,"ha":650,"o":"m 163 264 l 404 264 l 344 611 z m -68 0 l -60 52 l -2 52 l 350 729 l 424 729 l 540 52 l 604 52 l 596 0 l 357 0 l 366 52 l 439 52 l 412 212 l 136 212 l 53 52 l 125 52 l 116 0 z"},"f":{"x_min":0,"x_max":333,"ha":333,"o":"m 449 637 l 406 637 q 408 647 408 657 q 408 679 397 693 q 382 712 348 712 q 302 712 279 684 q 256 657 244 586 l 232 519 l 362 519 l 353 467 l 223 467 l 135 -32 q 120 -119 72 -164 q 23 -208 -55 -208 l -50 -160 q -4 -160 19 -133 q 42 -104 54 -32 l 142 467 l 64 467 l 74 519 l 151 519 l 162 584 q 178 671 226 715 q 274 760 353 760 q 382 760 411 754 q 439 748 466 736 z"},"Q":{"x_min":0,"x_max":738,"ha":738,"o":"m 326 -14 q 176 -14 104 89 q 54 161 54 268 q 54 312 63 364 q 79 452 115 522 q 151 591 210 646 q 261 694 321 718 q 380 742 448 742 q 591 742 661 638 q 709 565 709 460 q 709 415 701 364 q 675 219 592 121 q 509 22 388 -6 q 406 -39 437 -54 q 469 -70 517 -70 l 626 -70 l 610 -160 l 559 -160 q 442 -160 394 -120 q 347 -80 326 -14 z m 325 38 q 433 38 502 120 q 571 203 600 364 q 611 430 611 483 q 611 559 587 607 q 546 690 439 690 q 331 690 262 608 q 192 525 164 364 q 152 298 152 245 q 152 169 176 120 q 217 38 325 38 z"},"w":{"x_min":0,"x_max":770,"ha":770,"o":"m 526 114 q 584 184 598 210 q 646 308 693 467 l 625 466 l 635 519 l 752 519 l 743 466 l 742 466 q 698 285 655 198 q 592 73 523 0 l 456 0 l 408 388 l 225 0 l 160 0 l 103 467 l 51 466 l 60 519 l 180 519 l 229 114 l 421 519 l 478 519 z"},"-":{"x_min":0,"x_max":304,"ha":304,"o":"m 46 306 l 271 306 l 258 230 l 33 230 z"},"E":{"x_min":0,"x_max":657,"ha":657,"o":"m -14 0 l -4 52 l 79 52 l 188 677 l 105 677 l 114 729 l 642 729 l 614 567 l 560 567 l 578 669 l 276 669 l 233 425 l 448 425 l 464 516 l 519 516 l 476 274 l 422 274 l 438 365 l 223 365 l 169 60 l 478 60 l 496 162 l 550 162 l 521 0 z"},"s":{"x_min":0,"x_max":461,"ha":461,"o":"m 31 150 l 78 150 q 76 136 76 123 q 76 34 185 34 q 293 34 310 123 q 311 132 311 147 q 311 163 296 181 q 281 199 218 223 l 163 245 q 107 267 89 294 q 70 322 70 354 q 70 366 72 381 q 85 452 139 493 q 193 533 271 533 q 350 533 431 491 l 411 378 l 365 378 q 367 389 367 399 q 367 435 344 460 q 322 485 271 485 q 167 485 153 405 q 151 396 151 382 q 151 367 166 350 q 180 333 236 312 l 296 290 q 358 267 382 232 q 398 208 398 184 q 398 82 324 28 q 266 -14 177 -14 q 89 -14 10 29 z"},">":{"x_min":0,"x_max":754,"ha":754,"o":"m 95 498 l 95 581 l 659 354 l 659 273 l 95 46 l 95 129 l 552 313 z"},"l":{"x_min":0,"x_max":288,"ha":288,"o":"m 127 52 l 204 52 l 194 0 l 37 0 l 161 708 l 83 708 l 92 760 l 251 760 z"},"8":{"x_min":0,"x_max":572,"ha":572,"o":"m 391 199 q 404 277 377 321 q 349 364 286 364 q 223 364 180 321 q 138 277 124 199 q 110 121 138 77 q 165 34 228 34 q 292 34 334 77 q 376 121 391 199 z m 434 553 q 446 620 422 657 q 398 694 344 694 q 290 694 253 657 q 216 620 204 553 q 192 486 216 449 q 240 412 294 412 q 349 412 386 449 q 423 486 434 553 z m 358 388 q 431 377 464 327 q 497 277 483 199 q 465 97 397 41 q 329 -14 220 -14 q 111 -14 62 41 q 14 97 31 199 q 45 277 95 327 q 146 377 223 388 q 159 401 131 444 q 103 487 115 553 q 130 641 194 692 q 257 742 352 742 q 448 742 493 692 q 539 641 523 553 q 512 487 469 444 q 426 401 358 388 z"},"\\":{"x_min":0,"x_max":303,"ha":303,"o":"m 142 729 l 231 -93 l 161 -93 l 72 729 z"},"e":{"x_min":0,"x_max":532,"ha":532,"o":"m 132 199 q 130 181 130 164 q 130 118 145 88 q 171 34 240 34 q 292 34 316 51 q 361 82 372 122 l 431 122 q 414 60 348 16 q 302 -14 212 -14 q 121 -14 72 61 q 38 113 38 188 q 38 222 45 259 q 66 383 141 458 q 215 533 320 533 q 492 533 492 398 q 492 299 402 250 q 310 201 132 199 z m 357 309 q 406 341 406 401 q 406 485 307 485 q 248 485 207 435 q 166 385 141 251 q 282 258 357 309 z"},"b":{"x_min":0,"x_max":576,"ha":576,"o":"m 162 708 l 84 708 l 94 760 l 252 760 l 196 438 q 228 487 269 510 q 310 533 364 533 q 450 533 491 458 q 519 408 519 338 q 519 301 511 260 q 490 138 422 62 q 354 -14 268 -14 q 214 -14 181 9 q 149 32 133 81 l 119 0 l 39 0 z m 160 234 q 153 195 153 165 q 153 120 167 91 q 191 42 253 42 q 315 42 356 97 q 398 152 417 260 q 425 309 425 348 q 425 393 413 422 q 391 477 329 477 q 268 477 227 428 q 186 378 169 285 z"},"%":{"x_min":0,"x_max":855,"ha":855,"o":"m 260 697 q 221 697 192 656 q 164 616 151 543 q 138 471 153 430 q 168 389 206 389 q 244 389 272 430 q 301 471 314 543 q 327 615 312 656 q 297 697 260 697 z m 650 339 q 612 339 583 298 q 554 257 541 184 q 529 112 543 72 q 558 31 596 31 q 634 31 663 72 q 691 112 704 184 q 716 256 702 298 q 688 339 650 339 z m 658 383 q 727 383 759 329 q 790 275 774 184 q 758 93 708 39 q 657 -14 588 -14 q 518 -14 487 39 q 455 93 471 184 q 487 276 537 329 q 588 383 658 383 z m 666 742 l 732 742 l 189 -14 l 123 -14 z m 384 544 q 368 452 318 398 q 268 345 198 345 q 127 345 96 399 q 65 452 81 544 q 97 635 147 688 q 198 742 267 742 q 336 742 368 689 q 400 635 384 544 z"},"m":{"x_min":0,"x_max":853,"ha":853,"o":"m 493 418 q 526 475 567 504 q 609 533 657 533 q 730 533 758 482 q 774 452 774 403 q 774 371 767 330 l 718 52 l 791 52 l 782 0 l 628 0 l 684 320 q 691 358 691 385 q 691 416 683 433 q 668 467 619 467 q 565 467 529 421 q 492 376 477 289 l 427 0 l 346 0 l 402 323 q 409 360 409 386 q 409 417 400 434 q 385 467 336 467 q 282 467 246 421 q 210 376 195 289 l 144 0 l 63 0 l 145 468 l 68 468 l 77 519 l 235 519 l 219 427 q 250 479 290 506 q 329 533 373 533 q 428 533 459 503 q 490 473 493 418 z"},"#":{"x_min":0,"x_max":754,"ha":754,"o":"m 458 440 l 334 440 l 297 277 l 422 277 z m 396 718 l 351 515 l 475 515 l 521 718 l 596 718 l 550 515 l 685 515 l 685 440 l 533 440 l 497 277 l 635 277 l 635 202 l 480 202 l 435 0 l 359 0 l 405 202 l 281 202 l 235 0 l 160 0 l 205 202 l 69 202 l 69 277 l 222 277 l 258 440 l 120 440 l 120 515 l 275 515 l 321 718 z"},",":{"x_min":0,"x_max":286,"ha":286,"o":"m 18 -97 q 65 -63 92 -18 q 120 28 131 93 l 134 111 l 221 111 q 203 27 160 -32 q 118 -92 46 -136 z"},"n":{"x_min":0,"x_max":580,"ha":580,"o":"m 63 0 l 145 467 l 67 467 l 77 519 l 235 519 l 219 427 q 250 479 291 506 q 332 533 379 533 q 456 533 484 484 q 501 454 501 404 q 501 372 494 330 l 445 52 l 517 52 l 508 0 l 354 0 l 407 302 q 416 352 416 386 q 416 416 409 433 q 394 468 341 468 q 285 468 247 422 q 210 376 195 289 l 144 0 z"},"h":{"x_min":0,"x_max":580,"ha":580,"o":"m 43 0 l 167 708 l 90 708 l 99 760 l 257 760 l 199 427 q 230 479 271 506 q 312 533 359 533 q 437 533 464 484 q 481 454 481 404 q 481 372 474 330 l 425 52 l 497 52 l 488 0 l 335 0 l 388 302 q 396 352 396 386 q 396 416 390 432 q 375 467 321 467 q 265 467 227 421 q 190 376 175 289 l 124 0 z"},"z":{"x_min":0,"x_max":474,"ha":474,"o":"m 358 476 q 406 476 452 519 l 479 519 l 471 477 l 152 107 q 156 105 169 101 q 184 96 199 85 l 221 70 q 262 42 292 42 q 349 42 417 116 l 407 57 q 331 -25 274 -25 q 240 -24 191 9 q 142 43 111 43 q 63 43 18 0 l -9 0 l -1 42 l 318 412 q 313 414 301 418 q 286 423 271 434 l 250 449 q 208 477 178 477 q 121 477 53 403 l 63 462 q 139 544 196 544 q 230 543 279 510 q 328 476 358 476 z"},"B":{"x_min":0,"x_max":661,"ha":661,"o":"m 168 52 l 299 52 q 378 52 422 90 q 465 128 479 211 q 494 293 464 331 q 435 369 355 369 l 224 369 z m 233 421 l 344 421 q 417 421 455 452 q 494 482 505 549 q 517 616 489 646 q 461 677 389 677 l 277 677 z m -14 0 l -4 52 l 79 52 l 188 677 l 105 677 l 114 729 l 438 729 q 537 729 580 684 q 622 639 606 549 q 595 484 553 445 q 512 407 443 398 q 524 386 559 339 q 594 291 580 211 q 561 103 490 51 q 420 0 290 0 z"},"K":{"x_min":0,"x_max":672,"ha":672,"o":"m -14 0 l -4 52 l 79 52 l 188 677 l 105 677 l 114 729 l 370 729 l 361 677 l 277 677 l 229 401 l 560 677 l 489 677 l 498 729 l 716 729 l 707 677 l 633 677 l 303 402 l 557 52 l 632 52 l 623 0 l 470 0 l 220 346 l 168 52 l 251 52 l 243 0 z"},"R":{"x_min":0,"x_max":677,"ha":677,"o":"m 431 362 q 460 353 479 330 q 497 308 507 268 l 565 52 l 645 52 l 636 0 l 481 0 l 419 232 q 402 299 381 319 q 359 339 316 339 l 218 339 l 168 52 l 261 52 l 252 0 l -14 0 l -4 52 l 79 52 l 188 677 l 105 677 l 114 729 l 447 729 q 542 729 586 678 q 629 627 612 534 q 599 459 554 416 q 508 373 431 362 z m 228 391 l 357 391 q 423 391 461 426 q 499 461 512 534 q 524 607 499 642 q 474 677 407 677 l 277 677 z"},"T":{"x_min":0,"x_max":600,"ha":600,"o":"m 108 0 l 117 52 l 201 52 l 310 671 l 116 671 l 97 557 l 42 557 l 73 729 l 655 729 l 625 557 l 571 557 l 591 671 l 398 671 l 290 52 l 374 52 l 365 0 z"},"P":{"x_min":0,"x_max":605,"ha":605,"o":"m 224 371 l 340 371 q 405 371 447 410 q 488 450 501 524 q 514 599 486 638 q 459 677 394 677 l 277 677 z m -14 0 l -4 52 l 79 52 l 188 677 l 105 677 l 114 729 l 424 729 q 522 729 570 674 q 618 618 602 524 q 585 430 518 375 q 451 319 353 319 l 215 319 l 168 52 l 270 52 l 261 0 z"},"|":{"x_min":0,"x_max":303,"ha":303,"o":"m 187 764 l 187 -236 l 116 -236 l 116 764 z"},"t":{"x_min":0,"x_max":361,"ha":361,"o":"m 121 467 l 49 467 l 59 519 l 130 519 l 158 680 l 239 680 l 211 519 l 363 519 l 354 467 l 202 467 l 144 137 q 137 99 137 76 q 137 61 141 53 q 149 34 180 34 q 211 34 229 55 q 248 76 257 122 l 318 122 q 302 51 265 19 q 228 -14 164 -14 q 94 -14 71 21 q 57 42 57 81 q 57 105 63 137 z"},"M":{"x_min":0,"x_max":921,"ha":921,"o":"m -14 0 l -4 52 l 79 52 l 188 677 l 100 677 l 109 729 l 300 729 l 440 210 l 761 729 l 940 729 l 931 677 l 843 677 l 734 52 l 818 52 l 809 0 l 552 0 l 562 52 l 645 52 l 744 615 l 430 107 l 368 107 l 231 615 l 133 52 l 216 52 l 208 0 z"},"g":{"x_min":0,"x_max":576,"ha":576,"o":"m 537 519 l 448 11 q 428 -105 363 -161 q 292 -222 194 -222 q 148 -222 108 -213 q 67 -204 32 -185 l 51 -76 l 93 -76 q 92 -127 117 -150 q 143 -174 198 -174 q 269 -174 310 -129 q 351 -85 368 11 l 380 81 q 348 32 307 9 q 266 -14 214 -14 q 137 -14 98 44 q 73 81 71 131 q 69 161 75 196 q 105 369 213 458 q 305 533 413 533 q 511 534 537 519 z m 448 467 q 448 483 400 483 q 314 483 250 410 q 185 336 162 203 q 154 163 156 133 q 158 103 169 83 q 190 42 247 42 q 308 42 349 91 q 390 140 407 234 l 416 285 z"},"j":{"x_min":0,"x_max":279,"ha":279,"o":"m 165 680 q 168 703 186 719 q 204 736 225 736 q 245 736 256 719 q 265 707 265 691 q 265 686 264 680 q 260 657 243 641 q 226 625 205 625 q 185 625 172 641 q 164 653 164 669 q 164 674 165 680 z m 147 467 l 71 467 l 80 519 l 237 519 l 137 -51 q 124 -131 73 -177 q 21 -222 -53 -222 q -85 -222 -112 -214 q -140 -206 -164 -190 l -146 -83 l -104 -83 q -105 -95 -105 -105 q -105 -136 -94 -152 q -79 -174 -43 -174 q -3 -174 21 -144 q 45 -114 57 -51 z"},"i":{"x_min":0,"x_max":288,"ha":288,"o":"m 142 680 q 146 703 164 719 q 181 736 202 736 q 222 736 234 719 q 243 707 243 691 q 243 686 242 680 q 238 657 220 641 q 203 625 183 625 q 162 625 150 641 q 141 653 141 669 q 141 674 142 680 z m 135 52 l 212 52 l 203 0 l 45 0 l 127 467 l 50 467 l 59 519 l 217 519 z"},"y":{"x_min":0,"x_max":508,"ha":508,"o":"m 518 515 q 475 235 398 88 q 286 -128 196 -193 q 156 -222 51 -222 q 30 -222 9 -218 q -12 -214 -33 -207 l -15 -108 l 26 -108 q 25 -116 25 -123 q 25 -144 33 -155 q 44 -172 73 -172 q 150 -172 217 -97 l 107 467 l 54 467 l 63 519 l 184 519 l 288 4 q 358 122 375 170 q 431 322 442 462 l 389 462 l 398 515 z"},"@":{"x_min":0,"x_max":900,"ha":900,"o":"m 543 121 q 511 81 475 62 q 439 42 398 42 q 321 42 284 103 q 247 164 264 262 q 281 360 340 421 q 398 482 475 482 q 516 482 545 462 q 574 443 593 403 l 605 472 l 673 472 l 607 95 q 686 113 738 174 q 790 235 805 327 q 815 381 808 430 q 802 478 780 519 q 745 584 684 618 q 623 653 544 653 q 504 653 464 644 q 424 634 382 615 q 286 570 220 478 q 155 386 134 265 q 120 184 130 115 q 140 46 173 -4 q 210 -62 271 -93 q 331 -123 407 -123 q 464 -123 516 -104 q 569 -86 618 -49 l 635 -83 q 579 -128 515 -151 q 451 -174 379 -174 q 299 -174 231 -141 q 164 -109 120 -49 q 74 13 58 93 q 43 173 60 265 q 75 355 118 435 q 162 514 229 576 q 295 638 377 671 q 458 704 544 704 q 638 704 708 664 q 779 623 818 547 q 843 499 850 443 q 857 387 847 326 q 824 195 739 119 q 654 43 530 42 z m 563 237 l 573 288 q 583 349 559 387 q 534 425 483 425 q 430 425 393 382 q 356 339 342 262 q 329 185 351 142 q 374 99 427 99 q 477 99 515 137 q 553 176 563 237 z"},".":{"x_min":0,"x_max":286,"ha":286,"o":"m 155 116 q 179 116 193 97 q 207 78 202 51 q 197 24 177 5 q 156 -14 132 -14 q 107 -14 94 5 q 80 23 85 51 q 89 78 109 97 q 129 116 155 116 z"},"p":{"x_min":0,"x_max":576,"ha":576,"o":"m 206 285 l 197 234 q 190 195 190 165 q 190 120 205 91 q 228 42 290 42 q 352 42 393 97 q 435 152 454 260 q 462 309 462 348 q 462 393 450 422 q 428 477 366 477 q 304 477 263 428 q 222 378 206 285 z m 157 467 l 79 467 l 88 519 l 247 519 l 233 438 q 265 487 306 510 q 347 533 400 533 q 487 533 528 458 q 555 408 555 338 q 555 301 548 260 q 526 138 459 62 q 391 -14 305 -14 q 251 -14 218 9 q 186 32 170 81 l 120 -208 l 39 -208 z"},"X":{"x_min":0,"x_max":641,"ha":641,"o":"m 289 312 l 83 52 l 168 52 l 159 0 l -58 0 l -49 52 l 27 52 l 269 358 l 133 677 l 63 677 l 72 729 l 333 729 l 323 677 l 246 677 l 345 442 l 531 677 l 447 677 l 456 729 l 671 729 l 662 677 l 588 677 l 365 396 l 512 52 l 582 52 l 573 0 l 313 0 l 322 52 l 400 52 z"},"*":{"x_min":0,"x_max":450,"ha":450,"o":"m 436 604 l 264 515 l 436 425 l 402 367 l 249 473 l 255 287 l 195 287 l 201 473 l 48 367 l 15 425 l 187 514 l 15 604 l 48 662 l 201 556 l 195 742 l 255 742 l 249 556 l 402 662 z"},"Y":{"x_min":0,"x_max":594,"ha":594,"o":"m 106 0 l 115 52 l 199 52 l 245 314 l 106 677 l 44 677 l 54 729 l 297 729 l 289 677 l 212 677 l 324 382 l 540 677 l 466 677 l 475 729 l 666 729 l 657 677 l 595 677 l 335 323 l 288 52 l 372 52 l 363 0 z"},"c":{"x_min":0,"x_max":504,"ha":504,"o":"m 445 156 q 413 73 357 29 q 300 -14 223 -14 q 121 -14 72 61 q 38 113 38 188 q 38 222 45 260 q 66 384 142 459 q 217 533 318 533 q 363 533 405 522 q 447 510 487 487 l 464 354 l 417 354 q 417 361 417 367 q 417 425 394 454 q 369 485 311 485 q 246 485 202 428 q 159 372 139 260 q 130 208 130 168 q 130 122 143 91 q 166 34 232 34 q 285 34 321 64 q 357 95 379 156 z"},"!":{"x_min":0,"x_max":361,"ha":361,"o":"m 139 116 q 163 116 177 97 q 190 78 186 51 q 181 24 161 5 q 140 -14 116 -14 q 91 -14 77 5 q 64 23 69 51 q 74 78 94 97 q 114 116 139 116 z m 189 729 l 303 729 l 203 328 l 181 205 l 127 205 l 149 328 z"},"/":{"x_min":0,"x_max":303,"ha":303,"o":"m 305 729 l 375 729 l -1 -93 l -71 -93 z"},"[":{"x_min":0,"x_max":351,"ha":351,"o":"m 156 760 l 360 760 l 351 708 l 230 708 l 93 -80 l 213 -80 l 204 -132 l 0 -132 z"},"6":{"x_min":0,"x_max":572,"ha":572,"o":"m 305 426 q 242 426 201 377 q 159 328 143 236 q 126 139 151 86 q 175 34 237 34 q 299 34 341 85 q 383 135 400 230 q 417 325 392 375 q 367 426 305 426 z m 158 401 q 194 438 235 456 q 276 474 323 474 q 421 474 467 409 q 512 343 493 230 q 473 119 400 52 q 327 -14 225 -14 q 114 -14 70 78 q 26 170 56 341 q 90 532 179 637 q 268 742 396 742 q 431 742 468 735 q 505 728 542 713 l 521 593 l 472 593 q 476 642 451 668 q 427 694 379 694 q 293 694 239 622 q 185 550 158 401 z"},"r":{"x_min":0,"x_max":430,"ha":430,"o":"m 475 520 l 452 390 l 405 390 q 406 400 406 408 q 406 434 396 448 q 382 467 349 467 q 290 467 250 421 q 209 375 195 289 l 144 0 l 63 0 l 145 468 l 68 468 l 77 519 l 235 519 l 219 427 q 252 481 294 507 q 336 533 390 533 q 409 533 430 530 q 452 526 475 520 z"},"2":{"x_min":0,"x_max":572,"ha":572,"o":"m 148 555 l 99 555 l 121 685 q 173 713 224 728 q 274 742 319 742 q 422 742 471 687 q 521 632 504 537 q 486 430 325 281 q 313 270 307 264 l 109 80 l 382 80 l 398 170 l 450 170 l 420 0 l -3 0 l 6 53 l 244 274 q 322 347 361 408 q 400 470 412 537 q 425 611 397 652 q 370 694 310 694 q 247 694 206 659 q 166 625 148 555 z"},"{":{"x_min":0,"x_max":572,"ha":572,"o":"m 388 -112 l 379 -163 l 352 -163 q 243 -163 212 -127 q 181 -91 200 17 l 222 143 q 235 216 216 245 q 197 273 135 273 l 108 273 l 117 324 l 144 324 q 206 324 235 353 q 264 381 276 454 l 298 580 q 317 688 361 724 q 404 760 514 760 l 541 760 l 532 709 l 502 709 q 440 709 417 688 q 395 666 383 597 l 358 457 q 345 380 317 347 q 289 313 229 299 q 285 282 301 250 q 316 217 303 140 l 278 0 q 266 -69 281 -90 q 296 -112 358 -112 z"},"9":{"x_min":0,"x_max":572,"ha":572,"o":"m 415 327 q 378 290 337 272 q 296 254 248 254 q 150 254 105 319 q 61 385 80 498 q 100 609 173 676 q 246 742 348 742 q 459 742 502 650 q 546 558 516 387 q 482 196 393 91 q 304 -14 176 -14 q 141 -14 104 -7 q 67 0 30 15 l 51 136 l 100 136 q 98 87 122 61 q 146 34 193 34 q 278 34 333 106 q 387 177 415 327 z m 336 694 q 273 694 231 643 q 189 593 173 498 q 156 403 181 353 q 205 302 267 302 q 330 302 371 351 q 413 400 429 492 q 446 589 422 642 q 398 694 336 694 z"}," ":{"x_min":0,"x_max":286,"ha":286,"o":""},"I":{"x_min":0,"x_max":355,"ha":355,"o":"m 168 52 l 251 52 l 243 0 l -14 0 l -4 52 l 79 52 l 188 677 l 105 677 l 114 729 l 370 729 l 361 677 l 277 677 z"},"H":{"x_min":0,"x_max":785,"ha":785,"o":"m -14 0 l -4 52 l 79 52 l 188 677 l 105 677 l 114 729 l 370 729 l 361 677 l 277 677 l 233 425 l 574 425 l 618 677 l 534 677 l 543 729 l 799 729 l 791 677 l 707 677 l 598 52 l 681 52 l 672 0 l 416 0 l 425 52 l 508 52 l 563 365 l 223 365 l 168 52 l 251 52 l 243 0 z"},"4":{"x_min":0,"x_max":572,"ha":572,"o":"m 293 247 l 361 635 l 69 247 z m 443 0 l 145 0 l 153 52 l 259 52 l 284 195 l -2 195 l 7 248 l 380 742 l 467 742 l 381 247 l 506 247 l 497 195 l 372 195 l 347 52 l 452 52 z"},"~":{"x_min":0,"x_max":754,"ha":754,"o":"m 659 394 l 659 322 q 615 279 575 258 q 536 238 495 238 q 453 238 376 270 l 372 272 q 367 274 357 278 q 292 306 251 306 q 210 306 172 288 q 134 271 95 233 l 95 307 q 139 350 178 369 q 218 389 259 389 q 301 389 378 357 l 382 355 q 387 353 396 349 q 459 321 502 321 q 543 321 582 339 q 620 357 659 394 z"},"D":{"x_min":0,"x_max":721,"ha":721,"o":"m 168 52 l 250 52 q 378 52 460 133 q 543 214 569 365 q 596 517 542 597 q 487 677 359 677 l 277 677 z m -14 0 l -4 52 l 79 52 l 188 677 l 105 677 l 114 729 l 375 729 q 544 729 622 633 q 700 537 670 365 q 640 193 528 97 q 417 0 248 0 z"},"^":{"x_min":0,"x_max":754,"ha":754,"o":"m 420 729 l 659 457 l 591 457 l 377 643 l 163 457 l 95 457 l 334 729 z"},"0":{"x_min":0,"x_max":572,"ha":572,"o":"m 420 364 q 449 530 430 612 q 411 694 344 694 q 276 694 229 612 q 181 530 152 364 q 123 198 142 116 q 161 34 228 34 q 295 34 343 116 q 391 198 420 364 z m 220 -14 q 113 -14 71 85 q 28 185 59 364 q 91 543 168 643 q 246 742 352 742 q 459 742 502 643 q 544 543 513 364 q 481 185 404 85 q 327 -14 220 -14 z"},"F":{"x_min":0,"x_max":624,"ha":624,"o":"m -14 0 l -4 52 l 79 52 l 188 677 l 105 677 l 114 729 l 651 729 l 623 567 l 568 567 l 586 669 l 276 669 l 233 425 l 458 425 l 474 516 l 527 516 l 485 274 l 431 274 l 447 365 l 223 365 l 168 52 l 273 52 l 264 0 z"},"`":{"x_min":0,"x_max":450,"ha":450,"o":"m 248 799 l 330 615 l 278 615 l 161 799 z"},"k":{"x_min":0,"x_max":545,"ha":545,"o":"m 297 324 l 427 52 l 494 52 l 485 0 l 355 0 l 228 265 l 153 199 l 118 0 l 37 0 l 161 708 l 83 708 l 92 760 l 251 760 l 165 265 l 396 467 l 330 467 l 338 519 l 470 519 l 461 467 z"},"u":{"x_min":0,"x_max":580,"ha":580,"o":"m 436 519 l 517 519 l 435 52 l 511 52 l 502 0 l 345 0 l 361 92 q 329 40 289 13 q 249 -14 202 -14 q 124 -14 96 35 q 79 64 79 115 q 79 147 86 189 l 135 467 l 62 467 l 71 519 l 225 519 l 172 217 q 164 167 164 133 q 164 104 170 87 q 185 52 239 52 q 295 52 332 98 q 370 144 385 231 z"},"]":{"x_min":0,"x_max":351,"ha":351,"o":"m 352 760 l 196 -132 l -8 -132 l 1 -80 l 122 -80 l 259 708 l 139 708 l 148 760 z"},"U":{"x_min":0,"x_max":758,"ha":758,"o":"m 182 677 l 98 677 l 107 729 l 364 729 l 354 677 l 271 677 l 205 300 q 180 160 212 105 q 243 50 344 50 q 444 50 495 105 q 546 160 570 300 l 636 677 l 552 677 l 562 729 l 783 729 l 774 677 l 690 677 l 623 290 q 594 124 524 55 q 455 -14 316 -14 q 178 -14 132 55 q 85 125 114 290 z"},"o":{"x_min":0,"x_max":542,"ha":542,"o":"m 231 34 q 296 34 340 91 q 383 148 402 260 q 411 311 411 350 q 411 397 398 428 q 375 485 310 485 q 245 485 202 428 q 159 371 139 260 q 130 209 130 170 q 130 123 143 91 q 167 34 231 34 z m 223 -14 q 121 -14 72 61 q 38 113 38 188 q 38 222 45 260 q 66 384 141 458 q 216 533 319 533 q 421 533 470 458 q 503 407 503 332 q 503 298 497 260 q 475 136 400 61 q 325 -14 223 -14 z"},"N":{"x_min":0,"x_max":787,"ha":787,"o":"m -18 0 l -9 52 l 79 52 l 188 677 l 100 677 l 109 729 l 278 729 l 570 154 l 662 677 l 574 677 l 583 729 l 813 729 l 804 677 l 716 677 l 595 -14 l 542 -14 l 229 600 l 133 52 l 222 52 l 212 0 z"},"+":{"x_min":0,"x_max":754,"ha":754,"o":"m 412 627 l 412 353 l 659 353 l 659 274 l 412 274 l 412 0 l 342 0 l 342 274 l 95 274 l 95 353 l 342 353 l 342 627 z"},"G":{"x_min":0,"x_max":719,"ha":719,"o":"m 602 511 q 603 603 561 646 q 520 690 433 690 q 320 690 250 609 q 180 528 151 364 q 123 203 166 121 q 209 38 321 38 q 371 38 418 52 q 466 65 512 93 l 544 281 l 421 281 l 430 333 l 643 333 l 595 61 q 530 23 459 5 q 389 -14 312 -14 q 163 -14 92 89 q 21 192 50 364 q 81 537 188 639 q 296 742 448 742 q 504 742 561 728 q 619 713 681 684 l 651 511 z"},"q":{"x_min":0,"x_max":576,"ha":576,"o":"m 377 81 q 347 32 310 9 q 273 -14 225 -14 q 147 -14 108 44 q 83 81 81 131 q 79 161 85 196 q 116 369 223 458 q 315 533 423 533 q 508 534 535 519 l 417 -156 l 494 -156 l 485 -208 l 327 -208 z m 410 483 q 326 483 260 410 q 195 336 171 203 q 165 163 167 133 q 168 103 179 83 q 201 42 257 42 q 312 42 350 91 q 388 140 404 234 l 445 469 q 446 483 410 483 z"},"d":{"x_min":0,"x_max":576,"ha":576,"o":"m 540 760 l 407 0 l 326 0 l 340 81 q 308 32 267 9 q 227 -14 173 -14 q 86 -14 45 62 q 18 112 18 182 q 18 218 25 260 q 46 382 114 458 q 182 533 269 533 q 322 533 355 510 q 388 487 403 438 l 450 708 l 374 708 l 383 760 z m 367 234 l 376 285 q 383 323 383 354 q 383 398 369 428 q 345 477 284 477 q 221 477 180 422 q 138 368 120 260 q 111 210 111 172 q 111 127 123 97 q 145 42 208 42 q 269 42 310 91 q 351 140 367 234 z"},"1":{"x_min":0,"x_max":572,"ha":572,"o":"m 63 0 l 72 52 l 186 52 l 292 658 l 144 563 l 155 627 l 335 742 l 396 742 l 274 52 l 389 52 l 380 0 z"},"5":{"x_min":0,"x_max":572,"ha":572,"o":"m 518 729 l 503 649 l 203 649 l 167 440 q 192 458 224 466 q 256 475 294 475 q 401 475 451 410 q 501 344 481 231 q 461 115 387 51 q 314 -14 201 -14 q 156 -14 111 -2 q 65 10 20 35 l 45 177 l 95 177 q 86 107 116 71 q 145 34 210 34 q 279 34 325 85 q 372 136 388 231 q 405 326 376 376 q 348 427 278 427 q 239 427 206 411 q 173 396 144 363 l 106 363 l 170 729 z"}}}
